<?xml version="1.0" encoding="UTF-8"?>
<svg width="304px" height="346px" viewBox="0 0 304 346" version="1.1" xmlns="http://www.w3.org/2000/svg" xmlns:xlink="http://www.w3.org/1999/xlink">
    <!-- Generator: Sketch 43.2 (39069) - http://www.bohemiancoding.com/sketch -->
    <title>Path 7</title>
    <desc>Created with Sketch.</desc>
    <defs>
        <path d="M177.5,9 C77.5,14.5 25,10.5 8,117.5 C-9,224.5 60.5,176 69,242 C77.5,308 77,322.5 97.5,334 C113.560653,343.009634 119,330 124,322 C129,314 124.5,293.5 125.5,279.5 C126.5,265.5 130.5,229.5 182,230.5 C233.5,231.5 236.5,237.5 264,235.5 C291.5,233.5 332.701623,186.270761 248.5,166 C221.5,159.5 214,159.5 211.5,144.5 C209,129.5 225,132.5 238.5,116 C252,99.5 277.5,3.5 177.5,9 Z" id="path-1"></path>
        <filter x="-3.6%" y="-3.2%" width="107.1%" height="106.4%" filterUnits="objectBoundingBox" id="filter-2">
            <feGaussianBlur stdDeviation="1.81582337 2.98036472" in="SourceGraphic"></feGaussianBlur>
        </filter>
    </defs>
    <g id="Page-1" stroke="none" stroke-width="1" fill="none" fill-rule="evenodd">
        <g id="Path-7" filter="url(#filter-2)">
            <use fill="#C2ECFB" fill-rule="evenodd" xlink:href="#path-1"></use>
            <path stroke="#FFAF56" stroke-width="8" d="M177.719668,12.9939637 C200.438886,11.7444067 217.258816,15.7957463 228.737221,24.2930524 C238.523347,31.5375872 244.358194,41.9922169 246.622296,54.9390505 C248.556744,66.0008258 247.776051,78.5034821 244.839406,90.6034692 C242.395724,100.672278 238.585451,109.578817 235.404171,113.467049 C233.998192,115.185467 232.513946,116.733333 230.935339,118.150733 C228.666168,120.188176 226.281586,121.899586 223.402244,123.648304 C222.085234,124.448167 217.315452,127.148736 216.281057,127.779997 C209.048896,132.193575 206.181309,136.918904 207.554424,145.157596 C209.51369,156.913192 214.442509,161.459499 227.899903,165.150405 C230.181763,165.776242 232.69522,166.395576 236.629338,167.318021 C237.621163,167.550578 241.244693,168.394589 241.795577,168.523328 C243.971578,169.031848 245.757907,169.454146 247.563785,169.888895 C266.807898,174.521737 280.028877,180.740646 287.529041,188.003394 C293.63983,193.920747 295.662909,200.241189 294.23168,206.741412 C291.570665,218.826963 276.577327,230.574721 263.709857,231.510537 C255.470295,232.109778 249.263198,232.017003 242.224406,231.32122 C238.943665,230.99692 226.416253,229.382308 224.51749,229.16022 C212.122731,227.710472 199.416225,226.837425 182.077655,226.500754 C157.68369,226.027085 141.21934,233.475644 131.553685,247.05549 C124.878471,256.43389 122.43227,266.305541 121.510165,279.215012 C121.203091,283.514045 121.323433,287.773158 121.811891,295.637843 C121.833003,295.977759 121.849242,296.237435 121.886731,296.835385 C122.778707,311.059232 122.581677,316.722132 120.608007,319.880004 C120.077681,320.728526 118.142514,323.98435 117.706202,324.69102 C112.295338,333.454693 108.237356,335.436991 99.4570039,330.511428 C86.813066,323.418487 83.0061504,315.5671 78.9874896,288.222885 C77.8044354,280.173017 72.4693794,237.623371 72.9672344,241.489068 C71.2330356,228.023525 66.9699749,218.158458 60.1676277,210.668509 C54.985061,204.962072 49.8352797,201.606899 39.4284602,196.215327 C39.1565469,196.074453 38.8945626,195.938882 38.3629564,195.663849 C24.6921114,188.589927 19.3254009,184.496319 14.8636936,175.8634 C8.81849057,164.166589 7.5200098,146.013362 11.9504513,118.127642 C19.3389536,71.6235393 33.4301243,45.8077493 57.2618158,31.9807622 C68.1506404,25.6631394 81.4024301,21.5647187 98.6378297,18.8894441 C112.642286,16.7156758 126.750088,15.6237169 154.933362,14.17748 C156.760676,14.0837106 164.205062,13.7054514 166.099871,13.6082589 C170.548632,13.3800637 174.172519,13.1890569 177.719668,12.9939637 Z"></path>
        </g>
    </g>
</svg>