<?xml version="1.0" encoding="UTF-8"?>
<svg width="228px" height="271px" viewBox="0 0 228 271" version="1.1" xmlns="http://www.w3.org/2000/svg" xmlns:xlink="http://www.w3.org/1999/xlink">
    <!-- Generator: Sketch 43.2 (39069) - http://www.bohemiancoding.com/sketch -->
    <title>Path 5</title>
    <desc>Created with Sketch.</desc>
    <defs>
        <linearGradient x1="0%" y1="-22.7218942%" x2="50%" y2="100%" id="linearGradient-1">
            <stop stop-color="#FFFFFF" offset="0%"></stop>
            <stop stop-color="#FA0303" offset="100%"></stop>
        </linearGradient>
    </defs>
    <g id="Page-1" stroke="none" stroke-width="1" fill="none" fill-rule="evenodd">
        <path d="M21.7305133,1.37072082 C8.23051333,3.87072082 -3.98354041,14.8963088 1.23051333,54.8707208 C2.73051333,66.3707208 15.7305133,74.3707208 22.2305133,76.8707208 C28.7305133,79.3707208 39.2612141,79.67225 41.7305133,93.8707208 C45.7305133,116.870721 10.2398149,122.842036 18.7305133,147.370721 C27.2212118,171.899405 58.2305133,166.870721 73.2305133,184.870721 C88.2305133,202.870721 78.2305133,231.370721 102.730513,251.370721 C127.230513,271.370721 189.230513,288.870721 219.730513,233.870721 C250.230513,178.870721 183.230513,171.370721 183.230513,149.370721 C183.230513,127.370721 192.730513,126.370721 185.230513,113.370721 C177.730513,100.370721 150.730513,114.370721 144.730513,98.3707208 C138.730513,82.3707208 155.230513,87.8707208 153.730513,60.8707208 C152.230513,33.8707208 120.230513,-0.129279183 83.7305133,8.87072082 C66.6933034,13.0716767 57.2359293,4.83677007 48.2305133,1.87072082 C39.2250974,-1.09532843 28.9290795,0.037653006 21.7305133,1.37072082 Z" id="Path-5" fill="url(#linearGradient-1)"></path>
    </g>
</svg>