<svg xmlns="http://www.w3.org/2000/svg" viewBox="0 0 99.04 99"><defs><style>.cls-1{fill:#f0f;}</style></defs><title>Asset 4</title><g id="Layer_2" data-name="Layer 2"><g id="Layer_1-2" data-name="Layer 1"><rect class="cls-1" x="0.02" y="54" width="9.02" height="9"/><rect class="cls-1" x="9" y="54" width="9.02" height="9"/><rect class="cls-1" x="9" y="45" width="9.02" height="9"/><rect class="cls-1" x="0.02" y="45" width="9.02" height="9"/><rect class="cls-1" x="45" y="90" width="9.02" height="9"/><rect class="cls-1" x="54.02" y="90" width="9.02" height="9"/><rect class="cls-1" x="63" y="90" width="9.02" height="9"/><rect class="cls-1" x="71.98" y="81" width="9.02" height="9"/><rect class="cls-1" x="81" y="72" width="9.02" height="9"/><rect class="cls-1" x="90" y="63" width="9.02" height="9"/><rect class="cls-1" x="72.02" y="72" width="9.02" height="9"/><rect class="cls-1" y="63" width="9.02" height="9"/><rect class="cls-1" x="9" y="63" width="9.02" height="9"/><rect class="cls-1" x="9.02" y="72" width="9.02" height="9" transform="translate(27.05 153) rotate(180)"/><rect class="cls-1" x="18" y="72" width="9.02" height="9" transform="translate(45.02 153) rotate(180)"/><rect class="cls-1" x="9" y="36" width="9.02" height="9" transform="translate(27.02 81) rotate(180)"/><rect class="cls-1" x="9" y="27" width="9.02" height="9" transform="translate(27.02 63) rotate(180)"/><rect class="cls-1" x="0.02" y="27" width="9.02" height="9" transform="translate(9.05 63) rotate(180)"/><rect class="cls-1" y="36" width="9.02" height="9" transform="translate(9.02 81) rotate(180)"/><rect class="cls-1" x="9" y="18" width="9.02" height="9" transform="translate(27.02 45) rotate(180)"/><rect class="cls-1" x="18.02" y="18" width="9.02" height="9" transform="translate(45.05 45) rotate(180)"/><rect class="cls-1" x="18" y="9" width="9.02" height="9" transform="translate(45.02 27) rotate(180)"/><rect class="cls-1" x="27.02" y="90" width="9.02" height="9" transform="translate(63.05 189) rotate(180)"/><rect class="cls-1" x="18.02" y="81" width="9.02" height="9" transform="translate(45.05 171) rotate(180)"/><rect class="cls-1" x="36.02" y="90" width="9.02" height="9" transform="translate(81.05 189) rotate(180)"/><rect class="cls-1" x="27.02" y="9" width="9.02" height="9" transform="translate(63.05 27) rotate(180)"/><rect class="cls-1" x="63.04" y="36" width="9.02" height="9" transform="translate(135.09 81) rotate(180)"/><rect class="cls-1" x="72.04" y="36" width="9.02" height="9" transform="translate(153.09 81) rotate(180)"/><rect class="cls-1" x="81.04" y="36" width="9.02" height="9" transform="translate(171.09 81) rotate(180)"/><rect class="cls-1" x="72.02" y="45" width="9.02" height="9" transform="translate(153.05 99) rotate(180)"/><rect class="cls-1" x="90.02" y="27" width="9.02" height="9" transform="translate(189.05 63) rotate(180)"/><rect class="cls-1" x="54.02" width="9.02" height="9" transform="translate(117.05 9) rotate(180)"/><rect class="cls-1" x="45.02" width="9.02" height="9" transform="translate(99.05 9) rotate(180)"/><rect class="cls-1" x="36.02" width="9.02" height="9" transform="translate(81.05 9) rotate(180)"/><rect class="cls-1" x="27.02" width="9.02" height="9" transform="translate(63.05 9) rotate(180)"/><rect class="cls-1" x="63" y="81" width="9.02" height="9" transform="translate(135.02 171) rotate(180)"/><rect class="cls-1" x="27.02" y="81" width="9.02" height="9" transform="translate(63.05 171) rotate(180)"/><rect class="cls-1" x="72.02" y="18" width="9.02" height="9" transform="translate(153.05 45) rotate(180)"/><rect class="cls-1" x="63" width="9.02" height="9" transform="translate(135.02 9) rotate(180)"/><rect class="cls-1" x="63.04" y="27" width="9.02" height="9" transform="translate(135.09 63) rotate(180)"/><rect class="cls-1" x="72.04" y="27" width="9.02" height="9" transform="translate(153.09 63) rotate(180)"/><rect class="cls-1" x="81.04" y="27" width="9.02" height="9" transform="translate(171.09 63) rotate(180)"/><rect class="cls-1" x="54.02" y="27" width="9.02" height="9" transform="translate(117.05 63) rotate(180)"/><rect class="cls-1" x="63" y="9" width="9.02" height="9" transform="translate(135.02 27) rotate(180)"/><rect class="cls-1" x="72.02" y="9" width="9.02" height="9" transform="translate(153.05 27) rotate(180)"/></g></g></svg>